# xmcd
# 
# Track frame offsets:
#     150
#     12919
#     25147
#     38053
#     51509
#     64606
#     78390
#     92121
#     106599
#     120631
#     134636
#     149447
#     161498
#     174010
#     186215
#     198947
#     212274
#     225619
#     238193
#     249968
#     261249
#     274894
#     287772
#     301414
#     313957
#     326011
# 
# Disc length: 4525
# 
# Revision: 0
# Processed by: cddbd v1.5.2PL0 Copyright (c) Steve Scherf et al.
# Submitted via: fre:ac v1.0.31
# 
DISCID=6f11ab1a
DTITLE=John Lee 'Sonny Boy' Williamson - Hoodoo Man Blues
DYEAR=2017
DGENRE=Blues
TTITLE0=I Been Dealing With The Devil
TTITLE1=New Early In The Morning
TTITLE2=Welfare Store Blues
TTITLE3=My Little Machine
TTITLE4=Jivin' The Blues
TTITLE5=Western Union Man
TTITLE6=Springtime Blues
TTITLE7=My Baby Made A Change
TTITLE8=Mattie Mae Blues
TTITLE9=Million Years Blues
TTITLE10=Sloppy Drunk Blues
TTITLE11=She Was A Dreamer
TTITLE12=My Black Name Blues
TTITLE13=Elevator Woman
TTITLE14=Sonny Boy's Jump
TTITLE15=Stop Breaking Down
TTITLE16=Hoodoo Hoodoo
TTITLE17=Shake The Boogie
TTITLE18=Mellow Chick Swing
TTITLE19=Polly Put Your Kettle On
TTITLE20=Sugar Gal
TTITLE21=Alcohol Blues
TTITLE22=I Love You For Myself
TTITLE23=Southern Dream
TTITLE24=Rub A Dub
TTITLE25=Better Cut That Out
EXTD=
EXTT0=
EXTT1=
EXTT2=
EXTT3=
EXTT4=
EXTT5=
EXTT6=
EXTT7=
EXTT8=
EXTT9=
EXTT10=
EXTT11=
EXTT12=
EXTT13=
EXTT14=
EXTT15=
EXTT16=
EXTT17=
EXTT18=
EXTT19=
EXTT20=
EXTT21=
EXTT22=
EXTT23=
EXTT24=
EXTT25=
PLAYORDER=
